HIERARCHY
ROOT Hips
{
	OFFSET 0.000000 0.000000 0.000000
	CHANNELS 6 Xposition Yposition Zposition Zrotation Yrotation Xrotation 
	JOINT LowerBack
	{
		OFFSET 0.000000 0.000000 0.000000
		CHANNELS 3 Zrotation Yrotation Xrotation
		JOINT Spine
		{
			OFFSET 0.028270 2.035590 -0.193380
			CHANNELS 3 Zrotation Yrotation Xrotation
			JOINT Spine1
			{
				OFFSET 0.056720 2.048850 -0.042750
				CHANNELS 3 Zrotation Yrotation Xrotation
				JOINT Neck
				{
					OFFSET 0.000000 0.000000 0.000000
					CHANNELS 3 Zrotation Yrotation Xrotation
					JOINT Neck1
					{
						OFFSET -0.054170 1.746240 0.172020
						CHANNELS 3 Zrotation Yrotation Xrotation
						JOINT Head
						{
							OFFSET 0.104070 1.761360 -0.123970
							CHANNELS 3 Zrotation Yrotation Xrotation
							End Site
							{
								OFFSET 0.000000 0.000000 0.000000
							}
						}
					}
				}
				JOINT LeftShoulder
				{
					OFFSET 0.000000 0.000000 0.000000
					CHANNELS 3 Zrotation Yrotation Xrotation
					JOINT LeftArm
					{
						OFFSET 3.362410 1.200890 -0.311210
						CHANNELS 3 Zrotation Yrotation Xrotation
						JOINT LeftForeArm
						{
							OFFSET 4.983000 -0.000000 -0.000000
							CHANNELS 3 Zrotation Yrotation Xrotation
							JOINT LeftHand
							{
								OFFSET 3.483560 -0.000000 -0.000000
								CHANNELS 3 Zrotation Yrotation Xrotation
								JOINT LeftFingerBase
								{
									OFFSET 0.000000 0.000000 0.000000
									CHANNELS 3 Zrotation Yrotation Xrotation
									JOINT LeftHandIndex1
									{
										OFFSET 0.715260 -0.000000 -0.000000
										CHANNELS 3 Zrotation Yrotation Xrotation
										End Site
										{
											OFFSET 0.000000 0.000000 0.000000
										}
									}
								}
								JOINT LThumb
								{
									OFFSET 0.000000 0.000000 0.000000
									CHANNELS 3 Zrotation Yrotation Xrotation
									End Site
									{
										OFFSET 0.000000 0.000000 0.000000
									}
								}
							}
						}
					}
				}
				JOINT RightShoulder
				{
					OFFSET 0.000000 0.000000 0.000000
					CHANNELS 3 Zrotation Yrotation Xrotation
					JOINT RightArm
					{
						OFFSET -3.136600 1.374050 -0.404650
						CHANNELS 3 Zrotation Yrotation Xrotation
						JOINT RightForeArm
						{
							OFFSET -5.241900 -0.000000 -0.000000
							CHANNELS 3 Zrotation Yrotation Xrotation
							JOINT RightHand
							{
								OFFSET -3.444170 -0.000000 -0.000000
								CHANNELS 3 Zrotation Yrotation Xrotation
								JOINT RightFingerBase
								{
									OFFSET 0.000000 0.000000 0.000000
									CHANNELS 3 Zrotation Yrotation Xrotation
									JOINT RightHandIndex1
									{
										OFFSET -0.622530 -0.000000 -0.000000
										CHANNELS 3 Zrotation Yrotation Xrotation
										End Site
										{
											OFFSET 0.000000 0.000000 0.000000
										}
									}
								}
								JOINT RThumb
								{
									OFFSET 0.000000 0.000000 0.000000
									CHANNELS 3 Zrotation Yrotation Xrotation
									End Site
									{
										OFFSET 0.000000 0.000000 0.000000
									}
								}
							}
						}
					}
				}
			}
		}
	}
}
}
MOTION
Frames: 12
Frame Time: 0.008333
5.941741 16.402533 0.825872 21.711237 77.238959 26.665999 -10.261520 2.304442 -1.045669 -2.672253 2.879749 -3.918242 -4.831199 2.767835 -2.276845 4.807529 0.302515 -7.192672 -2.066790 -0.168173 0.083902 0.000000 0.000000 0.000000 -9.908964 16.776833 2.948283 -57.911739 33.897367 26.674966 -4.408508 -26.647639 -0.052336 -11.834811 14.491749 -1.515491 -0.089201 -0.142548 -0.000000 0.000000 0.000000 0.000000 0.000000 0.000000 0.000000 3.184056 8.754377 -0.232677 48.986450 41.418461 20.892584 0.427692 74.392768 -0.027736 -3.179331 6.883425 -0.204567 -0.006635 -0.512254 0.000000 0.000000 0.000000 0.000000 0.000000 0.000000 0.000000 
6.115750 16.349237 0.834909 23.489891 77.099748 28.090040 -10.528657 2.176109 -0.500500 -2.725816 2.771090 -3.836576 -4.903799 2.670576 -2.356663 4.917860 0.578660 -7.192384 -2.207109 -0.177627 0.064824 0.000000 0.000000 0.000000 -10.435932 16.511238 3.112032 -57.885048 31.274431 27.069029 -4.380440 -25.410097 -0.047103 -11.106910 13.984005 -1.369085 -0.091777 -0.125243 -0.000000 0.000000 0.000000 0.000000 0.000000 0.000000 0.000000 3.757681 9.176261 -0.174501 50.257687 40.380853 21.069445 0.445420 73.506782 -0.030833 -3.683598 7.340980 -0.252879 0.004973 -0.516548 0.000000 0.000000 0.000000 0.000000 0.000000 0.000000 0.000000 
6.286427 16.299203 0.842382 25.161195 76.961281 29.381970 -10.743909 2.058617 0.073013 -2.769060 2.669714 -3.747644 -4.978479 2.580105 -2.431092 5.014365 0.855932 -7.176805 -2.358604 -0.187954 0.048404 0.000000 0.000000 0.000000 -10.928529 16.225275 3.276522 -57.918828 28.394985 27.239372 -4.360886 -23.938672 -0.041290 -10.128373 13.426623 -1.194962 -0.094177 -0.106040 -0.000000 0.000000 0.000000 0.000000 0.000000 0.000000 0.000000 4.360334 9.585229 -0.126892 51.602406 39.221821 21.220183 0.463322 72.478425 -0.034410 -4.270359 7.893752 -0.314894 0.017301 -0.520652 0.000000 0.000000 0.000000 0.000000 0.000000 0.000000 0.000000 
6.454763 16.253902 0.848527 26.759844 76.842739 30.587885 -10.911285 1.952800 0.659189 -2.803677 2.576651 -3.653943 -5.056814 2.496868 -2.497536 5.103293 1.117183 -7.141806 -2.518373 -0.198977 0.036239 0.000000 0.000000 0.000000 -11.366449 15.904045 3.431420 -58.011721 25.293786 27.164814 -4.346976 -22.256858 -0.035021 -8.863209 12.814199 -0.994227 -0.095442 -0.085361 -0.000000 0.000000 0.000000 0.000000 0.000000 0.000000 0.000000 4.992921 9.950046 -0.088373 53.014231 37.935528 21.332310 0.482347 71.285123 -0.038236 -4.922342 8.519631 -0.391218 0.029926 -0.523687 -0.000000 0.000000 0.000000 0.000000 0.000000 0.000000 0.000000 
6.621760 16.214784 0.853594 28.308121 76.758804 31.743905 -11.030048 1.861114 1.239996 -2.830610 2.494336 -3.560811 -5.142343 2.422567 -2.563159 5.189744 1.350963 -7.075200 -2.683252 -0.210636 0.032480 0.000000 0.000000 0.000000 -11.749751 15.492469 3.564738 -58.152665 22.072457 26.766663 -4.335342 -20.439449 -0.028560 -7.278372 12.142168 -0.769889 -0.094473 -0.063971 -0.000000 0.000000 0.000000 0.000000 0.000000 0.000000 0.000000 5.654501 10.245113 -0.052887 54.488978 36.506648 21.386583 0.503905 69.905916 -0.042050 -5.620175 9.186778 -0.480754 0.042444 -0.524698 -0.000000 0.000000 0.000000 0.000000 0.000000 0.000000 0.000000 
6.788341 16.183067 0.857911 29.823789 76.719681 32.884233 -11.101546 1.783143 1.798186 -2.850563 2.422685 -3.468671 -5.234831 2.356872 -2.616969 5.277344 1.543251 -6.983692 -2.847780 -0.222396 0.035838 0.000000 0.000000 0.000000 -12.056341 15.028014 3.669545 -58.333576 18.710867 26.091001 -4.316918 -18.524967 -0.022188 -5.360974 11.380213 -0.528057 -0.090120 -0.042560 -0.000000 0.000000 0.000000 0.000000 0.000000 0.000000 0.000000 6.329371 10.444359 -0.026013 56.032237 34.941640 21.354869 0.528088 68.318732 -0.045605 -6.341230 9.859933 -0.581008 0.054215 -0.522746 -0.000000 0.000000 0.000000 0.000000 0.000000 0.000000 0.000000 
6.955394 16.159842 0.861832 31.313819 76.731062 34.030882 -11.123869 1.719640 2.316061 -2.863846 2.362664 -3.381751 -5.336973 2.300343 -2.663142 5.369894 1.687971 -6.861774 -3.007751 -0.234036 0.048698 0.000000 0.000000 0.000000 -12.291926 14.481003 3.738141 -58.538344 15.292586 25.088219 -4.285415 -16.619397 -0.016340 -3.114493 10.499013 -0.279641 -0.081611 -0.022290 -0.000000 0.000000 0.000000 0.000000 0.000000 0.000000 0.000000 7.008657 10.532293 -0.003995 57.643873 33.239144 21.204022 0.555463 66.504314 -0.048698 -7.069422 10.497877 -0.688181 0.064866 -0.517041 -0.000000 0.000000 0.000000 0.000000 0.000000 0.000000 0.000000 
7.123586 16.145936 0.865743 32.777492 76.793928 35.195639 -11.095940 1.668574 2.779744 -2.870352 2.312625 -3.300670 -5.449151 2.251311 -2.695047 5.470804 1.778066 -6.717168 -3.158460 -0.245103 0.069549 0.000000 0.000000 0.000000 -12.456046 13.879296 3.766522 -58.749354 11.831905 23.798990 -4.233989 -14.818867 -0.011449 -0.582472 9.457029 -0.042649 -0.068825 -0.004320 -0.000000 0.000000 0.000000 0.000000 0.000000 0.000000 0.000000 7.679050 10.496902 0.011774 59.322809 31.419368 20.897563 0.585561 64.444865 -0.051191 -7.793103 11.059007 -0.797475 0.074090 -0.506976 -0.000000 0.000000 0.000000 0.000000 0.000000 0.000000 0.000000 
7.293578 16.141836 0.869968 34.206247 76.906598 36.378127 -11.015727 1.628205 3.177555 -2.869735 2.271086 -3.228395 -5.572520 2.208232 -2.716990 5.582866 1.813050 -6.548413 -3.296779 -0.255437 0.099520 0.000000 0.000000 0.000000 -12.558345 13.196486 3.754649 -58.952643 8.421288 22.204315 -4.160597 -13.257329 -0.007849 2.154303 8.218805 0.158313 -0.052462 0.010061 -0.000000 0.000000 0.000000 0.000000 0.000000 0.000000 0.000000 8.333178 10.337740 0.027553 61.061682 29.497333 20.395051 0.618267 62.129218 -0.053007 -8.507756 11.501692 -0.903491 0.081847 -0.492262 -0.000000 0.000000 0.000000 0.000000 0.000000 0.000000 0.000000 
7.465807 16.147668 0.874795 35.585545 77.060946 37.568738 -10.886183 1.589600 3.507785 -2.861476 2.229562 -3.157473 -5.704472 2.163388 -2.699656 5.710496 1.787225 -6.392544 -3.418392 -0.264202 0.128209 0.000000 0.000000 0.000000 -12.604924 12.599817 3.701426 -59.120112 4.923585 20.590728 -4.065910 -12.006562 -0.005755 4.948937 6.788741 0.294845 -0.034604 0.020464 -0.000000 0.000000 0.000000 0.000000 0.000000 0.000000 0.000000 8.957175 10.054370 0.031056 62.857659 27.535082 19.663427 0.651612 59.552032 -0.054082 -9.206127 11.790282 -1.000126 0.088027 -0.472729 0.000000 0.000000 0.000000 0.000000 0.000000 0.000000 0.000000 
7.640667 16.163407 0.880413 36.897427 77.252063 38.745612 -10.704735 1.552423 3.762524 -2.845058 2.187510 -3.097217 -5.846237 2.115948 -2.674573 5.855067 1.713526 -6.221366 -3.524168 -0.271995 0.164347 0.000000 0.000000 0.000000 -12.608041 11.914041 3.618588 -59.265276 1.621694 18.757602 -3.959419 -11.239272 -0.004942 7.662627 5.175720 0.345950 -0.017295 0.026217 -0.000000 0.000000 0.000000 0.000000 0.000000 0.000000 0.000000 9.559110 9.669492 0.047516 64.681274 25.527347 18.660779 0.687446 56.719815 -0.054428 -9.894409 11.892382 -1.082077 0.093064 -0.448858 -0.000000 0.000000 0.000000 0.000000 0.000000 0.000000 0.000000 
7.818441 16.188560 0.886851 38.116433 77.469622 39.880125 -10.475423 1.506926 3.946736 -2.819882 2.135256 -3.039432 -5.994619 2.057293 -2.613211 6.021369 1.589855 -6.072907 -3.611939 -0.278163 0.196930 0.000000 0.000000 0.000000 -12.577950 11.310679 3.509314 -59.372401 -1.632927 17.019761 -3.851751 -10.970399 -0.005150 10.111924 3.468980 0.304641 -0.003731 0.028561 -0.000000 0.000000 0.000000 0.000000 0.000000 0.000000 0.000000 10.133924 9.194332 0.066673 66.514898 23.537310 17.360102 0.725245 53.650933 -0.054022 -10.568184 11.791128 -1.143738 0.097089 -0.421096 -0.000000 0.000000 0.000000 0.000000 0.000000 0.000000 0.000000 
